<svg width="1280" height="640" viewBox="0 0 1280 640" role="img" xmlns="http://www.w3.org/2000/svg">
  <title>Pooltergeist — Java Multithreading Utility Library</title>
  <desc>Ghost center, three pool cards floating on left at different heights, TaskManager large card on right.</desc>

  <defs>
    <marker id="arrow" viewBox="0 0 10 10" refX="8" refY="5" markerWidth="6" markerHeight="6" orient="auto-start-reverse">
      <path d="M2 1L8 5L2 9" fill="none" stroke="context-stroke" stroke-width="1.5" stroke-linecap="round" stroke-linejoin="round"/>
    </marker>
    <radialGradient id="glow" cx="50%" cy="50%" r="50%">
      <stop offset="0%" stop-color="#AFA9EC" stop-opacity="0.13"/>
      <stop offset="100%" stop-color="#AFA9EC" stop-opacity="0"/>
    </radialGradient>
    <radialGradient id="ghostGlow" cx="50%" cy="48%" r="46%">
      <stop offset="0%" stop-color="#CECBF6" stop-opacity="0.18"/>
      <stop offset="100%" stop-color="#7F77DD" stop-opacity="0"/>
    </radialGradient>
  </defs>

  <rect width="1280" height="640" fill="#1a1825"/>
  <rect width="1280" height="640" fill="url(#glow)"/>
  <ellipse cx="648" cy="310" rx="230" ry="200" fill="url(#ghostGlow)"/>

  <!-- Grid -->
  <line x1="0" y1="160" x2="1280" y2="160" stroke="#534AB7" stroke-width="0.5" stroke-dasharray="6 14" opacity="0.15"/>
  <line x1="0" y1="320" x2="1280" y2="320" stroke="#534AB7" stroke-width="0.5" stroke-dasharray="6 14" opacity="0.15"/>
  <line x1="0" y1="480" x2="1280" y2="480" stroke="#534AB7" stroke-width="0.5" stroke-dasharray="6 14" opacity="0.15"/>
  <line x1="320" y1="0" x2="320" y2="640" stroke="#534AB7" stroke-width="0.5" stroke-dasharray="6 14" opacity="0.08"/>
  <line x1="640" y1="0" x2="640" y2="640" stroke="#534AB7" stroke-width="0.5" stroke-dasharray="6 14" opacity="0.08"/>
  <line x1="960" y1="0" x2="960" y2="640" stroke="#534AB7" stroke-width="0.5" stroke-dasharray="6 14" opacity="0.08"/>

  <!-- Title -->
  <text x="640" y="58" font-family="system-ui,sans-serif" font-size="44" font-weight="700" fill="#EEEDFE" text-anchor="middle" letter-spacing="2">Pooltergeist</text>
  <text x="640" y="82" font-family="system-ui,sans-serif" font-size="13" fill="#7F77DD" text-anchor="middle" letter-spacing="4">JAVA MULTITHREADING LIBRARY</text>

  <!-- Ghost -->
  <path d="M572 400 Q580 430 597 414 Q614 398 631 420 Q648 442 665 420 Q682 398 699 416 Q716 434 724 400" fill="#EEEDFE" opacity="0.95"/>
  <ellipse cx="648" cy="336" rx="78" ry="86" fill="#EEEDFE" opacity="0.95"/>
  <ellipse cx="648" cy="257" rx="72" ry="62" fill="#EEEDFE" opacity="0.95"/>
  <path d="M570 356 Q534 337 540 368 Q546 390 572 383" fill="#EEEDFE" opacity="0.87"/>
  <path d="M726 356 Q762 337 756 368 Q750 390 724 383" fill="#EEEDFE" opacity="0.87"/>
  <ellipse cx="629" cy="257" rx="14" ry="17" fill="#534AB7"/>
  <ellipse cx="668" cy="257" rx="14" ry="17" fill="#534AB7"/>
  <ellipse cx="632" cy="254" rx="6" ry="7" fill="#EEEDFE" opacity="0.5"/>
  <ellipse cx="671" cy="254" rx="6" ry="7" fill="#EEEDFE" opacity="0.5"/>
  <path d="M626 283 Q648 298 670 283" fill="none" stroke="#534AB7" stroke-width="3" stroke-linecap="round"/>

  <!-- Thread orbs -->
  <line x1="648" y1="195" x2="648" y2="138" stroke="#7F77DD" stroke-width="2" stroke-dasharray="6 5" opacity="0.58" marker-end="url(#arrow)"/>
  <circle cx="648" cy="124" r="11" fill="#7F77DD" opacity="0.75"/>
  <line x1="587" y1="227" x2="516" y2="172" stroke="#7F77DD" stroke-width="1.5" stroke-dasharray="5 5" opacity="0.42" marker-end="url(#arrow)"/>
  <circle cx="504" cy="163" r="7" fill="#AFA9EC" opacity="0.58"/>
  <line x1="709" y1="227" x2="780" y2="172" stroke="#7F77DD" stroke-width="1.5" stroke-dasharray="5 5" opacity="0.42" marker-end="url(#arrow)"/>
  <circle cx="792" cy="163" r="7" fill="#AFA9EC" opacity="0.58"/>
  <circle cx="370" cy="215" r="4" fill="#534AB7" opacity="0.38"/>
  <circle cx="926" cy="215" r="4" fill="#534AB7" opacity="0.38"/>
  <circle cx="188" cy="178" r="3" fill="#7F77DD" opacity="0.22"/>
  <circle cx="1108" cy="178" r="3" fill="#7F77DD" opacity="0.22"/>

  <!-- Attic — shifted a bit right vs before (was x=28, now x=60) -->
  <line x1="572" y1="320" x2="302" y2="172" stroke="#534AB7" stroke-width="1" stroke-dasharray="5 7" opacity="0.35"/>
  <rect x="60" y="108" width="228" height="130" rx="14" fill="#26215C" stroke="#534AB7" stroke-width="1.2"/>
  <text x="174" y="158" font-family="system-ui,sans-serif" font-size="26" font-weight="700" fill="#EEEDFE" text-anchor="middle">Attic</text>
  <text x="174" y="184" font-family="system-ui,sans-serif" font-size="14" fill="#CECBF6" text-anchor="middle">Virtual threads</text>
  <text x="174" y="206" font-family="system-ui,sans-serif" font-size="12" fill="#7F77DD" text-anchor="middle">lightweight · plentiful</text>

  <!-- Ballroom — shifted left (was x=68, now x=20) -->
  <line x1="572" y1="358" x2="268" y2="360" stroke="#534AB7" stroke-width="1" stroke-dasharray="5 7" opacity="0.35"/>
  <rect x="20" y="298" width="228" height="130" rx="14" fill="#26215C" stroke="#534AB7" stroke-width="1.2"/>
  <text x="134" y="348" font-family="system-ui,sans-serif" font-size="26" font-weight="700" fill="#EEEDFE" text-anchor="middle">Ballroom</text>
  <text x="134" y="374" font-family="system-ui,sans-serif" font-size="14" fill="#CECBF6" text-anchor="middle">CPU threads</text>
  <text x="134" y="396" font-family="system-ui,sans-serif" font-size="12" fill="#7F77DD" text-anchor="middle">ForkJoinPool · compute</text>

  <!-- Dungeon — shifted right (was x=24, now x=80) -->
  <line x1="582" y1="402" x2="308" y2="508" stroke="#534AB7" stroke-width="1" stroke-dasharray="5 7" opacity="0.35"/>
  <rect x="80" y="476" width="228" height="130" rx="14" fill="#26215C" stroke="#534AB7" stroke-width="1.2"/>
  <text x="194" y="526" font-family="system-ui,sans-serif" font-size="26" font-weight="700" fill="#EEEDFE" text-anchor="middle">Dungeon</text>
  <text x="194" y="552" font-family="system-ui,sans-serif" font-size="14" fill="#CECBF6" text-anchor="middle">IO + bulkhead</text>
  <text x="194" y="574" font-family="system-ui,sans-serif" font-size="12" fill="#7F77DD" text-anchor="middle">backpressure · isolated</text>

  <!-- ExecutorHub label — between Ballroom right edge (248) and ghost left (~570), centred ~x=410, at Ballroom mid-height ~y=363 -->
  <text x="318" y="368" font-family="system-ui,sans-serif" font-size="18" font-weight="600" fill="#AFA9EC" text-anchor="start" letter-spacing="1" opacity="0.8">ExecutorHub</text>

  <!-- TaskManager label + connector -->
  <line x1="726" y1="350" x2="960" y2="290" stroke="#1D9E75" stroke-width="1" stroke-dasharray="5 7" opacity="0.38"/>
  <text x="1056" y="155" font-family="system-ui,sans-serif" font-size="18" font-weight="600" fill="#5DCAA5" text-anchor="middle" letter-spacing="1" opacity="0.85">TaskManager</text>

  <!-- TaskManager card -->
  <rect x="862" y="170" width="388" height="390" rx="16" fill="#04342C" stroke="#1D9E75" stroke-width="1.4"/>
  <text x="1056" y="240" font-family="system-ui,sans-serif" font-size="28" font-weight="700" fill="#9FE1CB" text-anchor="middle">Fan-out pipeline</text>

  <rect x="902" y="268" width="100" height="44" rx="8" fill="#085041" stroke="#1D9E75" stroke-width="1"/>
  <text x="952" y="294" font-family="system-ui,sans-serif" font-size="13" font-weight="500" fill="#5DCAA5" text-anchor="middle">submit</text>
  <line x1="1002" y1="290" x2="1030" y2="290" stroke="#1D9E75" stroke-width="1.5" opacity="0.7" marker-end="url(#arrow)"/>
  <rect x="1030" y="268" width="100" height="44" rx="8" fill="#085041" stroke="#1D9E75" stroke-width="1"/>
  <text x="1080" y="294" font-family="system-ui,sans-serif" font-size="13" font-weight="500" fill="#5DCAA5" text-anchor="middle">workers</text>
  <line x1="1130" y1="290" x2="1158" y2="290" stroke="#1D9E75" stroke-width="1.5" opacity="0.7" marker-end="url(#arrow)"/>
  <rect x="1158" y="268" width="72" height="44" rx="8" fill="#085041" stroke="#1D9E75" stroke-width="1"/>
  <text x="1194" y="294" font-family="system-ui,sans-serif" font-size="13" font-weight="500" fill="#5DCAA5" text-anchor="middle">collect</text>

  <text x="1056" y="352" font-family="system-ui,sans-serif" font-size="13" fill="#5DCAA5" text-anchor="middle">Bounded deque input</text>
  <text x="1056" y="374" font-family="system-ui,sans-serif" font-size="13" fill="#5DCAA5" text-anchor="middle">Configurable parallelism</text>
  <text x="1056" y="396" font-family="system-ui,sans-serif" font-size="13" fill="#5DCAA5" text-anchor="middle">Backpressure on submit</text>
  <text x="1056" y="418" font-family="system-ui,sans-serif" font-size="13" fill="#5DCAA5" text-anchor="middle">Error tracking per result</text>
  <text x="1056" y="440" font-family="system-ui,sans-serif" font-size="13" fill="#5DCAA5" text-anchor="middle">Graceful completion wait</text>

  <circle cx="990" cy="480" r="4" fill="#1D9E75" opacity="0.45"/>
  <circle cx="1010" cy="480" r="4" fill="#1D9E75" opacity="0.45"/>
  <circle cx="1030" cy="480" r="4" fill="#1D9E75" opacity="0.45"/>
  <circle cx="1050" cy="480" r="4" fill="#1D9E75" opacity="0.45"/>
  <circle cx="1070" cy="480" r="4" fill="#1D9E75" opacity="0.45"/>
  <circle cx="1090" cy="480" r="4" fill="#1D9E75" opacity="0.45"/>
  <circle cx="1110" cy="480" r="4" fill="#1D9E75" opacity="0.45"/>
  <circle cx="1130" cy="480" r="4" fill="#1D9E75" opacity="0.45"/>

</svg>
